<?xml version="1.0"?>
<svg xmlns="http://www.w3.org/2000/svg" height="512px" viewBox="0 -76 512 512" width="512px"><path d="m467 0h-129.019531c-109.929688 0-207.148438 70.070312-241.914063 174.363281l-32.15625 96.460938c-36.113281 5.375-63.910156 36.585937-63.910156 74.175781 0 8.285156 6.714844 15 15 15h422c24.8125 0 45-20.1875 45-45 0-18.957031-11.789062-35.199219-28.414062-41.820312 5.203124-19.09375 22.691406-33.179688 43.414062-33.179688 8.285156 0 15-6.714844 15-15v-180c0-24.8125-20.1875-45-45-45zm-30 330h-404.429688c6.183594-17.441406 22.835938-29.972656 42.367188-30 .019531 0 .042969.003906.066406.003906.03125 0 .0625-.003906.097656-.003906h361.898438c8.269531 0 15 6.726562 15 15 0 8.269531-6.730469 15-15 15zm45-118.492188c-29.339844 5.980469-52.492188 29.152344-58.476562 58.492188h-327.710938l28.714844-86.152344c30.675781-92.019531 116.457031-153.847656 213.453125-153.847656h129.019531c8.269531 0 15 6.730469 15 15zm0 0" fill="#006DF0"/><path d="m437 60h-137c-41.355469 0-75 33.644531-75 75 0 8.285156 6.714844 15 15 15h197c8.285156 0 15-6.714844 15-15v-60c0-8.285156-6.714844-15-15-15zm-15 60h-164.429688c6.191407-17.460938 22.875-30 42.429688-30h122zm0 0" fill="#006DF0"/><path d="m165 180c-8.285156 0-15 6.714844-15 15v30c0 8.285156 6.714844 15 15 15s15-6.714844 15-15v-30c0-8.285156-6.714844-15-15-15zm0 0" fill="#006DF0"/><path d="m225 180c-8.285156 0-15 6.714844-15 15v30c0 8.285156 6.714844 15 15 15s15-6.714844 15-15v-30c0-8.285156-6.714844-15-15-15zm0 0" fill="#006DF0"/><path d="m285 180c-8.285156 0-15 6.714844-15 15v30c0 8.285156 6.714844 15 15 15s15-6.714844 15-15v-30c0-8.285156-6.714844-15-15-15zm0 0" fill="#006DF0"/></svg>
